<?xml version="1.0" encoding="UTF-8" standalone="no"?>
<svg
   xmlns:dc="http://purl.org/dc/elements/1.1/"
   xmlns:cc="http://creativecommons.org/ns#"
   xmlns:rdf="http://www.w3.org/1999/02/22-rdf-syntax-ns#"
   xmlns:svg="http://www.w3.org/2000/svg"
   xmlns="http://www.w3.org/2000/svg"
   xmlns:sodipodi="http://sodipodi.sourceforge.net/DTD/sodipodi-0.dtd"
   xmlns:inkscape="http://www.inkscape.org/namespaces/inkscape"
   width="64"
   height="30"
   viewBox="0 0 64 30"
   fill="none"
   version="1.1"
   id="svg32"
   sodipodi:docname="icon_atm_bersama.svg"
   inkscape:version="0.92.4 (5da689c313, 2019-01-14)">
  <metadata
     id="metadata38">
    <rdf:RDF>
      <cc:Work
         rdf:about="">
        <dc:format>image/svg+xml</dc:format>
        <dc:type
           rdf:resource="http://purl.org/dc/dcmitype/StillImage" />
        <dc:title></dc:title>
      </cc:Work>
    </rdf:RDF>
  </metadata>
  <defs
     id="defs36" />
  <sodipodi:namedview
     pagecolor="#ffffff"
     bordercolor="#666666"
     borderopacity="1"
     objecttolerance="10"
     gridtolerance="10"
     guidetolerance="10"
     inkscape:pageopacity="0"
     inkscape:pageshadow="2"
     inkscape:window-width="1619"
     inkscape:window-height="864"
     id="namedview34"
     showgrid="false"
     inkscape:pagecheckerboard="false"
     inkscape:zoom="12.551145"
     inkscape:cx="22.162184"
     inkscape:cy="15.359576"
     inkscape:window-x="0"
     inkscape:window-y="30"
     inkscape:window-maximized="0"
     inkscape:current-layer="svg32" />
  <path
     d="M 0 0 L 0 30 L 64 30 L 64 0 L 0 0 z M 55.583984 2.4101562 L 58.160156 2.4101562 L 49.394531 15.859375 L 48.601562 17.050781 L 47.759766 18.417969 L 45.654297 18.417969 L 44.861328 18.417969 L 45.654297 17.199219 L 48.601562 12.550781 L 49.394531 11.359375 L 49.642578 11.009766 L 49.642578 11.654297 L 55.583984 2.4101562 z M 60.166016 2.4101562 L 61.996094 2.4101562 L 61.996094 18.095703 L 60.214844 18.095703 L 60.166016 2.4101562 z M 11.808594 2.4589844 L 13.248047 2.4589844 L 14.234375 2.4589844 L 13.248047 4 L 9.65625 9.5175781 L 3.6386719 18.712891 L 1.9824219 18.712891 L 1.9824219 17.544922 L 9.65625 5.7675781 L 11.808594 2.4589844 z M 15.521484 2.4589844 L 16.662109 2.4589844 L 16.662109 12.699219 L 8.9648438 12.699219 L 9.6582031 11.609375 L 9.671875 11.609375 L 13.292969 6.0644531 L 15.521484 2.4589844 z M 17.726562 2.4589844 L 20.054688 2.4589844 L 20.054688 18.712891 L 17.826172 18.712891 L 17.726562 2.4589844 z M 23.201172 2.4589844 L 26.9375 2.4589844 L 37.138672 2.4589844 L 41.621094 2.4589844 L 40.285156 4.25 L 37.138672 4.25 L 26.9375 4.3007812 L 22.160156 4.3007812 L 23.201172 2.4589844 z M 42.683594 2.4589844 L 44.861328 2.4589844 L 37.136719 14.367188 L 34.214844 18.814453 L 32.703125 18.814453 L 32.658203 17.695312 L 37.136719 10.908203 L 42.683594 2.4589844 z M 46.152344 2.4589844 L 46.396484 2.4589844 L 46.396484 13.818359 L 45.654297 14.962891 L 44.169922 17.300781 L 44.169922 9.6171875 L 38.300781 18.814453 L 37.136719 18.814453 L 35.652344 18.814453 L 37.136719 16.503906 L 45.654297 3.2539062 L 46.152344 2.4589844 z M 47.609375 2.4589844 L 48.601562 2.4589844 L 49.392578 2.4589844 L 49.642578 2.4589844 L 49.642578 8.8496094 L 49.392578 9.2460938 L 48.601562 10.414062 L 47.660156 11.904297 L 47.609375 2.4589844 z M 59.050781 3.0097656 L 59.001953 18.095703 L 56.96875 18.095703 L 56.96875 9.71875 L 51.648438 18.417969 L 49.394531 18.417969 L 49.144531 18.417969 L 49.394531 18.044922 L 59.050781 3.0097656 z M 39.541016 5.3183594 L 38.005859 7.4101562 L 37.136719 7.4101562 L 33.052734 7.4101562 L 26.935547 17.746094 L 26.242188 18.914062 L 23.25 18.914062 L 26.935547 13.150391 L 31.912109 5.4179688 L 37.136719 5.3691406 L 39.541016 5.3183594 z M 26.935547 5.4179688 L 30.576172 5.4179688 L 26.935547 11.058594 L 21.810547 18.914062 L 20.574219 18.914062 L 20.574219 17.544922 L 26.935547 7.5039062 L 27.035156 7.359375 L 26.935547 7.359375 L 20.873047 7.359375 L 20.722656 6.7597656 L 21.466797 5.46875 L 26.935547 5.4179688 z M 14.333984 7.8046875 L 12.255859 11.158203 L 13.248047 11.109375 L 14.732422 11.109375 L 14.732422 7.8046875 L 14.333984 7.8046875 z M 16.640625 13.818359 L 16.640625 18.691406 L 14.683594 18.691406 L 14.683594 15.982422 L 9.6308594 15.982422 L 7.9746094 18.712891 L 5.0761719 18.712891 L 8.2226562 13.869141 L 8.3671875 13.869141 L 8.3671875 13.845703 L 16.640625 13.818359 z M 30.357422 19.996094 C 31.253222 19.947194 32.144203 20.172331 32.908203 20.644531 C 33.183303 20.807231 33.411513 21.040159 33.570312 21.318359 C 33.729112 21.596559 33.8118 21.911822 33.8125 22.232422 L 32.029297 22.28125 C 31.970197 21.96325 31.793456 21.679728 31.535156 21.486328 C 31.181656 21.308928 30.789431 21.223834 30.394531 21.240234 C 29.969231 21.226134 29.546103 21.310828 29.158203 21.486328 C 29.070703 21.537928 28.997513 21.609866 28.945312 21.697266 C 28.893113 21.784566 28.863575 21.884528 28.859375 21.986328 C 28.865675 22.074228 28.898172 22.158316 28.951172 22.228516 C 29.004272 22.298716 29.075503 22.351059 29.158203 22.380859 C 29.357403 22.580859 29.950769 22.730859 30.792969 22.880859 C 31.453569 22.992559 32.101156 23.176934 32.722656 23.427734 C 33.105856 23.587834 33.443784 23.837703 33.708984 24.158203 C 33.944384 24.504303 34.065641 24.917038 34.056641 25.335938 C 34.047741 25.754938 33.908103 26.160494 33.658203 26.496094 C 33.341803 26.866594 32.925584 27.136737 32.458984 27.273438 C 31.820584 27.489638 31.150063 27.590066 30.476562 27.572266 C 29.564263 27.630066 28.655653 27.402675 27.876953 26.921875 C 27.579053 26.696675 27.329278 26.413844 27.142578 26.089844 C 26.961278 25.775117 26.847546 25.428367 26.798828 25.068359 L 26.791016 25.068359 L 26.791016 25.037109 C 26.792343 25.047854 26.797377 25.057637 26.798828 25.068359 L 28.570312 24.96875 C 28.644813 25.38655 28.874191 25.759672 29.212891 26.013672 C 29.601591 26.249572 30.049806 26.369675 30.503906 26.359375 C 30.952206 26.391275 31.399163 26.288853 31.789062 26.064453 C 31.922463 25.990353 32.033881 25.882653 32.113281 25.751953 C 32.192681 25.621253 32.237588 25.471459 32.242188 25.318359 C 32.246088 25.240159 32.230213 25.161897 32.195312 25.091797 C 32.160313 25.021797 32.107669 24.961769 32.042969 24.917969 C 31.874669 24.731169 31.648191 24.608059 31.400391 24.568359 L 29.964844 24.273438 C 29.245144 24.160937 28.554241 23.907044 27.931641 23.527344 C 27.691741 23.371144 27.493669 23.15765 27.355469 22.90625 C 27.217169 22.65495 27.142472 22.373037 27.138672 22.085938 C 27.127572 21.893338 27.157862 21.701684 27.226562 21.521484 C 27.295262 21.341184 27.400809 21.177016 27.537109 21.041016 C 27.802209 20.673416 28.1875 20.409222 28.625 20.294922 C 29.1791 20.086322 29.765722 19.985694 30.357422 19.996094 z M 38.236328 20.082031 L 40.115234 20.082031 L 43.707031 27.441406 L 41.767578 27.441406 L 40.976562 25.800781 L 39.142578 25.800781 L 37.357422 25.800781 L 36.615234 27.441406 L 34.736328 27.441406 L 38.236328 20.082031 z M 0.8515625 20.109375 L 4.4316406 20.109375 C 4.9604006 20.094875 5.4907781 20.110403 6.0175781 20.158203 C 6.3539981 20.198303 6.6760944 20.316806 6.9589844 20.503906 C 7.2213744 20.662206 7.4561337 20.863709 7.6523438 21.099609 C 7.8073738 21.354509 7.8914244 21.646713 7.8964844 21.945312 C 7.9060844 22.293012 7.7833444 22.631025 7.5527344 22.890625 C 7.3295244 23.199625 7.0106544 23.427409 6.6464844 23.537109 C 7.1143444 23.636309 7.5470306 23.858141 7.9003906 24.181641 C 8.1918106 24.491141 8.3542156 24.900272 8.3535156 25.326172 C 8.3465656 25.663672 8.2428075 25.993637 8.0546875 26.273438 C 7.8594975 26.569437 7.60732 26.821678 7.3125 27.017578 C 6.93003 27.220678 6.5081519 27.338781 6.0761719 27.363281 C 5.5330519 27.416681 4.9867462 27.434162 4.4414062 27.414062 L 0.8515625 27.414062 L 0.8515625 20.109375 z M 9.9023438 20.109375 L 16.539062 20.109375 L 16.539062 21.363281 L 11.712891 21.363281 L 11.712891 23.003906 L 16.191406 23.003906 L 16.191406 24.181641 L 11.712891 24.181641 L 11.712891 26.171875 L 16.693359 26.171875 L 16.693359 27.414062 L 9.9023438 27.414062 L 9.9023438 20.109375 z M 18.232422 20.109375 L 22.072266 20.109375 C 22.770766 20.076275 23.470291 20.141887 24.150391 20.304688 C 24.544191 20.431387 24.890678 20.674806 25.142578 21.003906 C 25.408578 21.323006 25.549309 21.728631 25.537109 22.144531 C 25.539309 22.404931 25.486866 22.662944 25.384766 22.902344 C 25.282666 23.141744 25.132459 23.358909 24.943359 23.537109 C 24.445059 23.925909 23.839284 24.150241 23.208984 24.181641 C 23.556484 24.344541 23.874391 24.564631 24.150391 24.832031 C 24.540891 25.188631 24.889806 25.588538 25.191406 26.023438 L 26.279297 27.414062 L 24.078125 27.414062 L 22.787109 25.822266 C 22.504892 25.463035 22.194625 25.128234 21.859375 24.818359 C 21.699675 24.672359 21.516206 24.555056 21.316406 24.472656 C 21.017106 24.423756 20.712956 24.406175 20.410156 24.421875 L 20.066406 24.421875 L 20.066406 27.476562 L 18.232422 27.476562 L 18.232422 20.109375 z M 44.617188 20.109375 L 47.332031 20.109375 L 48.966797 25.109375 L 50.552734 20.109375 L 53.269531 20.109375 L 53.269531 27.462891 L 51.634766 27.462891 L 51.634766 21.671875 L 49.849609 27.462891 L 48.115234 27.462891 L 46.382812 21.671875 L 46.382812 27.462891 L 44.617188 27.462891 L 44.617188 20.109375 z M 57.660156 20.109375 L 59.558594 20.109375 L 63.138672 27.462891 L 61.15625 27.462891 L 60.363281 25.822266 L 56.845703 25.822266 L 56.103516 27.462891 L 54.169922 27.462891 L 57.660156 20.109375 z M 2.6972656 21.363281 L 2.6972656 23.054688 L 4.4316406 23.054688 C 4.6775206 23.018888 4.9273513 23.001406 5.1757812 23.003906 C 5.4397813 22.982006 5.6942088 22.896206 5.9179688 22.753906 C 5.9979787 22.677106 6.0606756 22.584822 6.1035156 22.482422 C 6.1463656 22.380022 6.1674556 22.269303 6.1660156 22.158203 C 6.1575956 21.950603 6.0691187 21.755181 5.9179688 21.613281 C 5.7357087 21.463181 5.5107806 21.375581 5.2753906 21.363281 L 4.4316406 21.363281 L 2.6972656 21.363281 z M 20.080078 21.363281 L 20.080078 23.181641 L 21.859375 23.181641 C 22.242375 23.196941 22.6254 23.163731 23 23.082031 C 23.1948 23.044231 23.370541 22.93705 23.494141 22.78125 C 23.565841 22.71105 23.62175 22.62565 23.65625 22.53125 C 23.69075 22.43695 23.702859 22.336428 23.693359 22.236328 C 23.694359 22.125328 23.673659 22.014509 23.630859 21.912109 C 23.588059 21.809709 23.524913 21.717725 23.445312 21.640625 C 23.247512 21.480325 23.005353 21.383581 22.751953 21.363281 L 21.859375 21.363281 L 20.080078 21.363281 z M 39.091797 21.800781 L 37.90625 24.544922 L 40.332031 24.544922 L 39.142578 21.818359 L 39.142578 21.845703 L 39.091797 21.800781 z M 58.552734 21.818359 L 57.367188 24.544922 L 58.552734 24.544922 L 59.792969 24.544922 L 58.552734 21.818359 z M 2.6972656 24.273438 L 2.6972656 26.208984 L 5.5683594 26.208984 C 5.8103694 26.183584 6.0385569 26.080363 6.2167969 25.914062 C 6.3046169 25.832863 6.3716225 25.731141 6.4140625 25.619141 C 6.4564925 25.507141 6.4728375 25.386878 6.4609375 25.267578 C 6.4648275 25.073678 6.4119769 24.88385 6.3105469 24.71875 C 6.1390669 24.56325 5.93835 24.445247 5.71875 24.373047 C 5.29478 24.294647 4.8625806 24.261537 4.4316406 24.273438 L 2.6972656 24.273438 z "
     id="path2"
     style="fill:#2e3192;fill-opacity:1" />
</svg>
