<?xml version="1.0" encoding="UTF-8" standalone="no"?>
<svg
   xmlns:dc="http://purl.org/dc/elements/1.1/"
   xmlns:cc="http://creativecommons.org/ns#"
   xmlns:rdf="http://www.w3.org/1999/02/22-rdf-syntax-ns#"
   xmlns:svg="http://www.w3.org/2000/svg"
   xmlns="http://www.w3.org/2000/svg"
   xmlns:sodipodi="http://sodipodi.sourceforge.net/DTD/sodipodi-0.dtd"
   xmlns:inkscape="http://www.inkscape.org/namespaces/inkscape"
   width="46"
   height="30"
   viewBox="0 0 46 30"
   fill="none"
   version="1.1"
   id="svg18"
   sodipodi:docname="icon_alto.svg"
   inkscape:version="0.92.4 (5da689c313, 2019-01-14)">
  <metadata
     id="metadata24">
    <rdf:RDF>
      <cc:Work
         rdf:about="">
        <dc:format>image/svg+xml</dc:format>
        <dc:type
           rdf:resource="http://purl.org/dc/dcmitype/StillImage" />
        <dc:title></dc:title>
      </cc:Work>
    </rdf:RDF>
  </metadata>
  <defs
     id="defs22" />
  <sodipodi:namedview
     pagecolor="#ffffff"
     bordercolor="#666666"
     borderopacity="1"
     objecttolerance="10"
     gridtolerance="10"
     guidetolerance="10"
     inkscape:pageopacity="0"
     inkscape:pageshadow="2"
     inkscape:window-width="1584"
     inkscape:window-height="940"
     id="namedview20"
     showgrid="false"
     inkscape:pagecheckerboard="true"
     inkscape:zoom="17.462463"
     inkscape:cx="19.977318"
     inkscape:cy="15.668701"
     inkscape:window-x="0"
     inkscape:window-y="30"
     inkscape:window-maximized="0"
     inkscape:current-layer="svg18" />
  <path
     d="M 4.1523438 8.6367188 C 2.6347737 10.415609 1.7815613 12.6641 1.7382812 15 C 1.7830213 17.3845 2.666755 19.678516 4.234375 21.478516 L 41.753906 21.478516 C 43.321606 19.678516 44.2052 17.3845 44.25 15 C 44.2067 12.6641 43.353538 10.415609 41.835938 8.6367188 L 4.1523438 8.6367188 z M 8.0742188 11.226562 L 11.34375 11.226562 L 15.033203 18.876953 L 12.636719 18.876953 L 11.931641 17.511719 L 7.5585938 17.511719 L 6.8847656 18.876953 L 4.4980469 18.876953 L 8.0742188 11.226562 z M 15.535156 11.226562 L 18.089844 11.226562 L 18.089844 17.244141 L 22.894531 17.244141 L 22.894531 18.876953 L 18.089844 18.876953 L 17.169922 18.876953 L 15.535156 18.876953 L 15.535156 11.226562 z M 21.054688 11.226562 L 30.554688 11.226562 L 30.554688 12.857422 L 27.185547 12.857422 L 27.185547 18.876953 L 24.529297 18.876953 L 24.529297 12.857422 L 21.054688 12.857422 L 21.054688 11.226562 z M 35.707031 11.365234 C 39.796931 11.365234 41.027344 12.8318 41.027344 15 C 41.027344 17.1682 40.203178 18.927734 36.017578 18.927734 C 31.918578 18.927734 31.007812 17.1864 31.007812 15 C 31.007813 12.8137 32.232031 11.365234 35.707031 11.365234 z M 36.068359 12.732422 C 35.458359 12.732422 34.872706 12.973797 34.441406 13.404297 C 34.010006 13.834697 33.767578 14.418544 33.767578 15.027344 C 33.767578 16.268244 34.381988 17.273438 36.117188 17.273438 L 36.117188 17.296875 C 36.421188 17.322875 36.727372 17.280881 37.013672 17.175781 C 37.300072 17.070681 37.560691 16.9039 37.775391 16.6875 C 37.990091 16.471 38.153359 16.210728 38.255859 15.923828 C 38.358259 15.637028 38.396388 15.330444 38.367188 15.027344 C 38.367187 14.418544 38.124659 13.834697 37.693359 13.404297 C 37.261959 12.973797 36.678359 12.732422 36.068359 12.732422 z M 9.6953125 13.113281 L 8.4003906 15.761719 L 11.060547 15.761719 L 9.6953125 13.113281 z "
     id="path2"
     style="fill:#201a17;fill-opacity:1" />
  <path
     d="M22.9909 30C16.8743 30 11.1174 28.4545 6.78158 25.6455C2.44574 22.8364 0 19.0318 0 15C0 10.9682 2.40931 7.18636 6.78158 4.35455C11.1539 1.52273 16.8743 0 22.9909 0C29.1075 0 34.8644 1.54545 39.2002 4.35455C43.536 7.16364 46 10.9682 46 15C46 19.0318 43.5725 22.8136 39.2002 25.6455C34.8279 28.4773 29.1075 30 22.9909 30ZM22.9909 0.613636C10.6529 0.613636 0.614852 7.06818 0.614852 15C0.614852 22.9318 10.6347 29.3864 22.9909 29.3864C35.3471 29.3864 45.3669 22.9318 45.3669 15C45.3669 7.06818 35.3289 0.613636 22.9909 0.613636Z"
     fill="#201A17"
     id="path12" />
  <path
     d="M22.9903 28.7674C31.1154 28.7674 38.1748 25.8128 41.7501 21.4946H4.23047C7.81027 25.8128 14.8651 28.7674 22.9903 28.7674Z"
     fill="#0095E3"
     id="path14" />
  <path
     d="M22.9941 1.23145C14.8052 1.23145 7.70026 4.23145 4.15234 8.63599H41.8359C38.288 4.23145 31.183 1.23145 22.9941 1.23145Z"
     fill="#EE0001"
     id="path16" />
</svg>
